<?xml version="1.0" standalone="no"?>
<!DOCTYPE svg PUBLIC "-//W3C//DTD SVG 20010904//EN"
 "http://www.w3.org/TR/2001/REC-SVG-20010904/DTD/svg10.dtd">
<svg version="1.0" xmlns="http://www.w3.org/2000/svg"
 width="900.000000pt" height="900.000000pt" viewBox="0 0 900.000000 900.000000"
 preserveAspectRatio="xMidYMid meet">

<g transform="translate(0.000000,900.000000) scale(0.100000,-0.100000)"
fill="#000000" stroke="none">
<path d="M6307 8155 c-1 -1 -148 -5 -327 -9 -179 -4 -471 -11 -650 -16 -179
-6 -480 -14 -670 -20 -190 -5 -421 -12 -515 -15 -93 -3 -255 -7 -360 -10 -104
-3 -260 -7 -345 -10 -85 -3 -249 -7 -365 -10 -975 -24 -962 -24 -995 -51 -66
-56 -94 -211 -87 -479 6 -215 28 -339 74 -427 15 -29 29 -56 31 -59 1 -3 -64
-9 -145 -12 -553 -23 -1192 -59 -1215 -68 -35 -14 -91 -75 -118 -129 -38 -75
-61 -188 -67 -325 -9 -230 38 -405 122 -452 13 -8 12 -20 -9 -103 -80 -317
-46 -833 60 -921 16 -13 11 -15 -42 -19 -56 -5 -60 -7 -76 -40 -40 -81 -52
-217 -52 -555 1 -279 3 -334 21 -433 26 -142 60 -216 107 -232 36 -12 202 -28
306 -31 46 -1 56 -3 35 -8 -58 -12 -80 -102 -94 -373 -5 -84 -9 -261 -9 -393
l-1 -239 -63 -13 c-124 -25 -280 -89 -298 -122 -20 -39 -60 -229 -80 -386 -56
-431 -26 -910 68 -1118 54 -117 60 -123 159 -141 79 -14 180 -21 128 -9 -112
27 -195 383 -195 839 0 279 33 535 92 724 l24 75 87 3 86 3 -20 -45 c-24 -54
-63 -285 -78 -456 -27 -303 -20 -580 19 -811 23 -136 53 -217 104 -289 l35
-49 -57 -4 c-31 -2 127 -4 352 -5 l410 -2 -24 22 c-59 56 -108 219 -141 473
-19 147 -17 549 4 702 23 162 51 302 79 393 l24 75 82 3 c45 2 82 -1 82 -6 0
-5 -7 -26 -15 -46 -41 -99 -94 -513 -100 -786 -7 -368 43 -656 134 -777 38
-49 39 -52 18 -56 -12 -2 221 -5 518 -7 297 -1 574 -3 615 -5 41 -1 518 -5
1060 -9 542 -4 1037 -9 1100 -11 123 -4 2073 -20 2203 -18 87 2 100 6 632 201
165 60 356 129 425 152 69 24 131 48 138 53 31 24 -1 94 -39 84 -23 -6 -24 -2
-48 158 -44 286 -75 832 -64 1111 l6 142 36 6 c20 3 50 6 67 6 63 0 84 65 32
103 -26 19 -33 19 -320 8 -161 -6 -319 -14 -350 -17 l-58 -6 0 230 c0 265 12
353 64 482 49 121 67 214 72 380 6 166 1 184 -43 158 -26 -15 -161 -48 -198
-48 -10 0 7 29 48 83 78 102 127 198 127 248 0 67 -44 59 -177 -32 -97 -65
-118 -74 -238 -93 -103 -17 -499 -60 -661 -72 l-91 -6 -7 38 c-29 153 -22 417
14 560 29 114 48 145 103 172 32 15 49 30 53 48 7 29 -9 74 -27 74 -8 0 -6 -7
4 -18 10 -10 17 -28 17 -39 0 -48 12 -48 -704 -48 -637 -1 -725 -4 -849 -31
-60 -13 -86 -133 -87 -404 0 -200 18 -394 50 -528 31 -131 64 -176 135 -186
l40 -6 -35 11 c-84 26 -115 94 -150 327 -40 271 -37 581 7 714 l18 53 60 12
c144 29 869 44 1273 26 l151 -6 -18 -26 c-28 -42 -50 -105 -66 -195 -34 -199
-29 -405 16 -598 11 -48 21 -91 22 -95 1 -4 -11 -11 -28 -14 -27 -6 -27 -7 -5
-8 50 -2 56 11 35 78 -10 34 -16 64 -12 67 3 3 133 19 289 35 156 15 299 31
318 33 19 3 60 8 90 12 143 16 192 32 284 98 75 53 119 76 146 76 67 0 -43
-215 -179 -349 -94 -93 -111 -99 -316 -126 -16 -2 -118 -17 -225 -34 -107 -16
-239 -35 -294 -42 -117 -15 -136 -27 -167 -107 -21 -52 -23 -78 -27 -281 -6
-311 19 -613 62 -756 9 -27 14 -50 13 -51 -1 -1 -281 -5 -622 -8 -341 -4 -811
-8 -1045 -11 -234 -2 -751 -7 -1150 -10 -399 -3 -837 -7 -975 -10 -137 -3
-585 -7 -995 -10 -410 -3 -785 -8 -835 -11 -142 -8 -130 -48 -130 423 1 481
16 637 65 663 10 5 56 12 102 16 45 3 92 7 103 9 11 2 65 5 120 6 75 1 89 4
55 8 -25 4 -128 5 -230 4 -197 -2 -413 11 -469 28 -26 9 -38 22 -57 63 -70
153 -94 657 -48 987 17 128 35 179 61 180 10 0 26 2 35 4 9 2 151 6 315 10
164 4 397 11 518 15 180 6 154 7 -145 4 -201 -3 -420 -7 -487 -10 l-123 -6
-28 30 c-30 31 -60 119 -84 242 -19 97 -15 431 6 550 27 153 51 222 94 268
l37 41 105 5 c58 3 186 6 285 7 99 1 239 5 310 9 72 4 267 11 435 14 168 4
341 9 385 11 44 3 283 10 530 15 248 6 506 12 575 15 125 5 326 11 705 20 508
13 592 15 780 20 685 20 744 24 890 54 104 21 160 28 220 25 44 -1 150 -6 235
-9 148 -6 300 -16 760 -50 286 -22 289 -22 301 -48 8 -20 9 -20 6 -2 -1 11
-13 25 -27 31 -14 6 -189 23 -389 38 -321 24 -367 30 -389 47 -14 10 -42 22
-63 25 -37 6 -40 10 -55 58 -18 60 -30 337 -17 406 8 40 12 45 43 51 57 12 85
63 60 110 -10 19 -4 19 275 19 178 0 294 4 306 10 22 12 26 62 7 78 -7 5 -33
14 -58 19 -44 8 -45 10 -42 43 5 58 40 255 75 425 l33 160 41 6 c85 11 96 62
27 115 -39 29 -335 135 -572 204 -40 11 -88 30 -107 41 -28 17 -138 42 -148
34z m148 -47 c33 -15 186 -68 341 -117 277 -90 358 -126 370 -165 8 -25 -28
-56 -66 -56 -27 0 -28 1 -25 50 2 28 0 48 -5 45 -5 -3 -37 4 -72 15 -35 11
-136 42 -226 68 -89 27 -160 51 -157 54 3 3 -6 3 -21 0 -20 -4 -25 -2 -19 8 5
9 4 11 -4 6 -14 -9 -73 3 -66 13 2 5 -7 6 -22 3 -16 -3 -24 -1 -20 5 4 6 -3 8
-18 5 -13 -2 -27 -13 -30 -23 -4 -11 -11 -16 -17 -13 -6 4 -8 3 -5 -3 4 -6 -3
-57 -15 -114 -19 -89 -22 -138 -22 -334 -1 -215 0 -233 21 -277 20 -44 24 -47
75 -57 29 -6 118 -24 198 -40 150 -31 237 -48 280 -55 98 -15 111 -19 120 -36
12 -23 13 -33 1 -26 -5 3 -8 -2 -7 -12 1 -16 -22 -17 -311 -20 -293 -2 -329
-1 -585 28 -150 17 -302 33 -338 36 -36 2 -191 20 -345 39 -371 45 -368 45
-532 52 -83 3 -174 1 -220 -5 -88 -13 -176 -19 -373 -27 -74 -3 -193 -10 -265
-15 -274 -21 -983 -53 -1201 -54 -73 -1 -130 -4 -127 -8 2 -5 -24 -8 -59 -8
-35 0 -106 -3 -158 -6 -365 -21 -375 -21 -400 -9 -142 72 -177 828 -44 947 28
24 45 26 409 32 182 4 366 9 410 11 44 2 193 7 330 10 138 3 311 7 385 10 137
5 339 11 690 20 107 3 251 7 320 10 69 3 242 7 385 10 143 3 292 8 330 10 39
2 221 7 405 11 184 3 337 8 338 9 2 2 72 3 155 2 141 -2 156 -4 212 -29z m210
-144 c161 -46 385 -113 396 -120 4 -2 3 -23 -2 -46 -4 -24 -26 -135 -48 -248
-36 -184 -71 -380 -71 -404 0 -4 -15 -6 -32 -2 -18 3 -51 8 -73 12 -71 10
-409 86 -426 95 -33 17 -44 95 -43 299 1 210 19 358 54 436 18 42 19 43 52 33
18 -5 105 -30 193 -55z m-1455 -974 c660 -53 1117 -92 1137 -96 20 -4 21 -7
11 -34 -16 -47 -5 -373 15 -434 l16 -49 -147 7 c-239 11 -809 41 -972 51 -41
2 -131 7 -200 11 -169 8 -194 15 -228 66 -27 41 -27 44 -27 202 0 176 11 238
51 281 19 21 30 24 61 20 21 -3 148 -14 283 -25z m2707 -3034 c-6 -144 -26
-248 -74 -374 -60 -162 -67 -210 -67 -479 l0 -243 -60 0 c-63 0 -112 -8 -406
-70 -102 -22 -214 -44 -250 -50 -36 -7 -123 -25 -194 -41 -70 -16 -132 -29
-136 -29 -55 0 -119 654 -92 947 7 80 15 114 38 160 25 50 34 59 64 65 19 4
197 30 395 58 198 28 373 56 389 62 16 7 51 27 78 45 38 27 68 37 141 49 50 9
108 23 127 32 49 24 54 12 47 -132z m446 -1368 c-12 -347 29 -907 90 -1242 1
-4 -34 -21 -78 -36 -44 -16 -150 -54 -235 -85 -563 -206 -720 -255 -815 -258
-84 -1 -100 6 -114 54 -38 127 -43 184 -53 664 -17 767 -17 769 8 802 41 56
141 79 874 208 146 25 272 48 280 50 51 10 49 17 43 -157z m-4778 15 c-18 -46
-25 -77 -44 -198 -32 -204 -43 -362 -43 -605 0 -415 57 -723 159 -856 l33 -44
-83 0 c-78 0 -85 2 -109 28 -157 164 -229 884 -143 1417 13 82 55 241 70 265
3 6 42 10 87 10 72 0 79 -2 73 -17z m2955 -32 c0 -5 -6 -27 -14 -49 -19 -52
-53 -258 -65 -387 -12 -132 -12 -617 0 -725 20 -172 68 -368 109 -437 22 -38
20 -40 -37 -37 -24 1 -60 2 -82 3 -37 1 -39 3 -64 59 -32 71 -51 146 -77 297
-30 175 -35 255 -35 545 1 284 12 399 60 590 39 159 31 150 125 150 44 0 80
-4 80 -9z m406 -6 c-27 -72 -38 -127 -63 -330 -21 -176 -25 -687 -5 -841 23
-185 50 -299 92 -390 16 -37 30 -68 30 -70 0 -2 -38 -4 -84 -4 l-83 0 -27 60
c-34 75 -69 212 -90 350 -46 299 -46 700 -1 965 15 84 57 243 70 265 3 5 42
10 87 10 68 0 79 -2 74 -15z"/>
<path d="M6309 7833 c-13 -16 -12 -17 4 -4 9 7 17 15 17 17 0 8 -8 3 -21 -13z"/>
<path d="M6300 7786 c0 -2 8 -10 18 -17 15 -13 16 -12 3 4 -13 16 -21 21 -21
13z"/>
<path d="M6315 7301 c-3 -5 -2 -12 3 -15 5 -3 9 1 9 9 0 17 -3 19 -12 6z"/>
<path d="M6279 7263 c-13 -16 -12 -17 4 -4 9 7 17 15 17 17 0 8 -8 3 -21 -13z"/>
<path d="M6225 7231 c-3 -5 -2 -12 3 -15 5 -3 9 1 9 9 0 17 -3 19 -12 6z"/>
<path d="M6200 7206 c0 -2 8 -10 18 -17 15 -13 16 -12 3 4 -13 16 -21 21 -21
13z"/>
<path d="M6430 7206 c0 -2 8 -10 18 -17 15 -13 16 -12 3 4 -13 16 -21 21 -21
13z"/>
<path d="M5650 7196 c0 -2 8 -10 18 -17 15 -13 16 -12 3 4 -13 16 -21 21 -21
13z"/>
<path d="M6499 7183 c-13 -16 -12 -17 4 -4 9 7 17 15 17 17 0 8 -8 3 -21 -13z"/>
<path d="M5753 7155 c0 -8 4 -12 9 -9 5 3 6 10 3 15 -9 13 -12 11 -12 -6z"/>
<path d="M6645 7151 c-3 -5 -2 -12 3 -15 5 -3 9 1 9 9 0 17 -3 19 -12 6z"/>
<path d="M5863 7135 c0 -8 4 -12 9 -9 5 3 6 10 3 15 -9 13 -12 11 -12 -6z"/>
<path d="M6133 7135 c0 -8 4 -12 9 -9 5 3 6 10 3 15 -9 13 -12 11 -12 -6z"/>
<path d="M6263 7135 c0 -8 4 -12 9 -9 5 3 6 10 3 15 -9 13 -12 11 -12 -6z"/>
<path d="M6269 7103 c-13 -16 -12 -17 4 -4 9 7 17 15 17 17 0 8 -8 3 -21 -13z"/>
<path d="M6355 7111 c-3 -5 -2 -12 3 -15 5 -3 9 1 9 9 0 17 -3 19 -12 6z"/>
<path d="M2229 7093 c-13 -16 -12 -17 4 -4 9 7 17 15 17 17 0 8 -8 3 -21 -13z"/>
<path d="M2369 7083 c-13 -16 -12 -17 4 -4 16 13 21 21 13 21 -2 0 -10 -8 -17
-17z"/>
<path d="M6475 7071 c-3 -5 -2 -12 3 -15 5 -3 9 1 9 9 0 17 -3 19 -12 6z"/>
<path d="M5933 6253 c9 -2 23 -2 30 0 6 3 -1 5 -18 5 -16 0 -22 -2 -12 -5z"/>
<path d="M5844 6231 c-18 -11 -35 -25 -40 -33 -4 -7 1 -5 12 4 11 9 35 24 54
32 19 8 28 15 20 16 -8 0 -29 -9 -46 -19z"/>
<path d="M6048 6243 c23 -2 59 -2 80 0 20 2 1 4 -43 4 -44 0 -61 -2 -37 -4z"/>
<path d="M6233 6233 c20 -2 54 -2 75 0 20 2 3 4 -38 4 -41 0 -58 -2 -37 -4z"/>
<path d="M6423 6223 c20 -2 54 -2 75 0 20 2 3 4 -38 4 -41 0 -58 -2 -37 -4z"/>
<path d="M6587 6213 c18 -2 50 -2 70 0 21 2 7 4 -32 4 -38 0 -55 -2 -38 -4z"/>
<path d="M6763 6203 c20 -2 54 -2 75 0 20 2 3 4 -38 4 -41 0 -58 -2 -37 -4z"/>
<path d="M7290 6196 c-9 -12 -33 -15 -118 -12 -59 2 -78 1 -43 -1 63 -4 63 -4
57 -31 -35 -162 -29 -683 10 -838 l6 -23 -128 -4 c-71 -2 -47 -3 53 -1 153 3
185 1 198 -12 8 -9 15 -19 15 -23 0 -12 -24 -38 -40 -45 -8 -3 -4 -4 10 -3 17
1 28 11 35 31 14 40 -20 66 -85 66 -56 0 -54 -4 -71 151 -12 111 -7 640 6 692
6 23 12 27 44 27 36 0 82 22 70 34 -3 4 -12 0 -19 -8z"/>
<path d="M6938 6193 c23 -2 59 -2 80 0 20 2 1 4 -43 4 -44 0 -61 -2 -37 -4z"/>
<path d="M2507 6174 c-2 -2 -357 -12 -672 -20 -215 -5 -242 -7 -256 -24 -58
-67 -78 -740 -29 -985 17 -81 7 -77 196 -75 93 1 194 3 224 5 30 1 213 6 405
10 193 4 353 9 358 12 4 2 4 9 1 15 -28 45 -39 183 -39 498 0 320 8 470 29
530 l14 41 -115 -3 c-63 -2 -115 -4 -116 -4z"/>
<path d="M5792 6120 c0 -19 2 -27 5 -17 2 9 2 25 0 35 -3 9 -5 1 -5 -18z"/>
<path d="M5783 6025 c0 -27 2 -38 4 -22 2 15 2 37 0 50 -2 12 -4 0 -4 -28z"/>
<path d="M5773 5890 c0 -41 2 -58 4 -37 2 20 2 54 0 75 -2 20 -4 3 -4 -38z"/>
<path d="M5764 5655 c0 -77 2 -107 3 -67 2 40 2 103 0 140 -2 37 -3 4 -3 -73z"/>
<path d="M5773 5460 c0 -25 2 -35 4 -22 2 12 2 32 0 45 -2 12 -4 2 -4 -23z"/>
<path d="M5781 5384 c0 -11 3 -14 6 -6 3 7 2 16 -1 19 -3 4 -6 -2 -5 -13z"/>
<path d="M5814 5273 c15 -18 28 -23 65 -21 l46 1 -45 4 c-25 3 -54 12 -65 21
-20 17 -20 17 -1 -5z"/>
<path d="M6733 5273 c26 -2 68 -2 95 0 26 2 4 3 -48 3 -52 0 -74 -1 -47 -3z"/>
<path d="M6548 5263 c12 -2 30 -2 40 0 9 3 -1 5 -23 4 -22 0 -30 -2 -17 -4z"/>
<path d="M5968 5253 c7 -3 16 -2 19 1 4 3 -2 6 -13 5 -11 0 -14 -3 -6 -6z"/>
<path d="M6008 5253 c7 -3 16 -2 19 1 4 3 -2 6 -13 5 -11 0 -14 -3 -6 -6z"/>
<path d="M7118 5193 c23 -2 59 -2 80 0 20 2 1 4 -43 4 -44 0 -61 -2 -37 -4z"/>
<path d="M6690 5179 c-18 -5 -10 -7 29 -8 30 -1 52 2 49 5 -10 9 -51 11 -78 3z"/>
<path d="M6908 5183 c17 -2 47 -2 65 0 17 2 3 4 -33 4 -36 0 -50 -2 -32 -4z"/>
<path d="M6464 5172 c8 -7 107 -9 111 -2 2 3 -23 6 -56 7 -33 0 -58 -2 -55 -5z"/>
<path d="M6176 5158 c3 -5 10 -6 15 -3 13 9 11 12 -6 12 -8 0 -12 -4 -9 -9z"/>
<path d="M6267 5163 c18 -2 50 -2 70 0 21 2 7 4 -32 4 -38 0 -55 -2 -38 -4z"/>
<path d="M5850 5145 c-36 -7 -91 -13 -122 -14 -31 -1 -59 -5 -62 -9 -5 -9 181
4 204 15 8 3 78 9 155 13 l140 6 -125 1 c-69 0 -154 -5 -190 -12z"/>
<path d="M5073 5123 c48 -2 125 -2 170 0 45 1 6 3 -88 3 -93 0 -130 -2 -82 -3z"/>
<path d="M4839 5116 c-8 -7 -289 -16 -714 -21 -236 -3 -482 -7 -545 -10 -63
-3 -284 -7 -490 -11 -206 -3 -377 -8 -380 -11 -7 -7 1395 11 1809 23 231 7
514 31 390 33 -36 0 -68 -1 -70 -3z"/>
<path d="M5408 5113 c45 -2 119 -2 165 0 45 1 8 3 -83 3 -91 0 -128 -2 -82 -3z"/>
<path d="M2328 5053 c46 -2 118 -2 160 0 42 1 5 3 -83 3 -88 0 -123 -2 -77 -3z"/>
<path d="M1888 5043 c46 -2 118 -2 160 0 42 1 5 3 -83 3 -88 0 -123 -2 -77 -3z"/>
<path d="M6618 4013 c6 -2 18 -2 25 0 6 3 1 5 -13 5 -14 0 -19 -2 -12 -5z"/>
<path d="M6568 4003 c7 -3 16 -2 19 1 4 3 -2 6 -13 5 -11 0 -14 -3 -6 -6z"/>
<path d="M6348 3973 c7 -3 16 -2 19 1 4 3 -2 6 -13 5 -11 0 -14 -3 -6 -6z"/>
<path d="M6298 3963 c7 -3 16 -2 19 1 4 3 -2 6 -13 5 -11 0 -14 -3 -6 -6z"/>
<path d="M6238 3953 c7 -3 16 -2 19 1 4 3 -2 6 -13 5 -11 0 -14 -3 -6 -6z"/>
<path d="M6791 3951 c-1 -8 -9 -24 -18 -35 -16 -20 -16 -20 6 0 13 12 21 28
18 35 -4 11 -6 11 -6 0z"/>
<path d="M6178 3943 c6 -2 18 -2 25 0 6 3 1 5 -13 5 -14 0 -19 -2 -12 -5z"/>
<path d="M6128 3933 c6 -2 18 -2 25 0 6 3 1 5 -13 5 -14 0 -19 -2 -12 -5z"/>
<path d="M6073 3923 c9 -2 23 -2 30 0 6 3 -1 5 -18 5 -16 0 -22 -2 -12 -5z"/>
<path d="M5840 3894 c-172 -30 -281 -52 -255 -53 35 0 409 66 399 71 -5 3 -70
-5 -144 -18z"/>
<path d="M6013 3913 c9 -2 23 -2 30 0 6 3 -1 5 -18 5 -16 0 -22 -2 -12 -5z"/>
<path d="M6518 3873 c6 -2 18 -2 25 0 6 3 1 5 -13 5 -14 0 -19 -2 -12 -5z"/>
<path d="M6458 3863 c6 -2 18 -2 25 0 6 3 1 5 -13 5 -14 0 -19 -2 -12 -5z"/>
<path d="M6408 3853 c7 -3 16 -2 19 1 4 3 -2 6 -13 5 -11 0 -14 -3 -6 -6z"/>
<path d="M5523 3833 c9 -2 23 -2 30 0 6 3 -1 5 -18 5 -16 0 -22 -2 -12 -5z"/>
<path d="M5935 3778 c-27 -6 -115 -23 -194 -38 -79 -16 -148 -34 -155 -40 -8
-9 -5 -10 14 -5 14 5 120 27 235 51 116 23 197 42 180 42 -16 0 -52 -5 -80
-10z"/>
<path d="M1683 3743 c32 -2 81 -2 110 0 29 2 3 3 -58 3 -60 0 -84 -1 -52 -3z"/>
<path d="M5298 3693 c6 -2 18 -2 25 0 6 3 1 5 -13 5 -14 0 -19 -2 -12 -5z"/>
<path d="M5508 3683 c7 -3 16 -2 19 1 4 3 -2 6 -13 5 -11 0 -14 -3 -6 -6z"/>
</g>
</svg>
